<svg xmlns="http://www.w3.org/2000/svg" width="1600" height="900" viewBox="0 0 1600 900">
  <defs>
    <linearGradient id="sky" x1="0" y1="0" x2="0" y2="1">
      <stop offset="0" stop-color="#e8f5e9"/>
      <stop offset="1" stop-color="#ffffff"/>
    </linearGradient>
    <linearGradient id="field" x1="0" y1="0" x2="1" y2="1">
      <stop offset="0" stop-color="#1b5e20"/>
      <stop offset="1" stop-color="#2e7d32"/>
    </linearGradient>
    <linearGradient id="soil" x1="0" y1="0" x2="1" y2="0">
      <stop offset="0" stop-color="#6d4c41"/>
      <stop offset="1" stop-color="#8d6e63"/>
    </linearGradient>
  </defs>

  <rect width="1600" height="900" fill="url(#sky)"/>
  <path d="M0 520 C 380 430, 700 430, 980 520 C 1240 600, 1410 650, 1600 700 L1600 900 L0 900 Z" fill="url(#field)"/>
  <path d="M0 640 C 420 560, 780 580, 1100 690 C 1290 755, 1450 810, 1600 860 L1600 900 L0 900 Z" fill="url(#soil)" opacity="0.25"/>

  <!-- subtle row lines -->
  <g opacity="0.22" stroke="#ffffff" stroke-width="2">
    <path d="M120 900 C 300 720, 560 640, 820 600"/>
    <path d="M260 900 C 430 740, 680 660, 940 620"/>
    <path d="M420 900 C 560 760, 800 690, 1060 650"/>
    <path d="M600 900 C 720 785, 920 720, 1180 690"/>
    <path d="M820 900 C 900 820, 1080 770, 1340 750"/>
  </g>

  <text x="60" y="850" font-family="system-ui, Segoe UI, Arial" font-size="22" fill="#ffffff" opacity="0.85">CPDE demo hero (placeholder)</text>
</svg>
